<?xml version="1.0" encoding="utf-8"?>
<!-- Generator: Adobe Illustrator 19.1.0, SVG Export Plug-In . SVG Version: 6.00 Build 0)  -->
<!DOCTYPE svg PUBLIC "-//W3C//DTD SVG 1.1//EN" "http://www.w3.org/Graphics/SVG/1.1/DTD/svg11.dtd">
<svg version="1.1" id="Layer_1" xmlns="http://www.w3.org/2000/svg" xmlns:xlink="http://www.w3.org/1999/xlink" x="0px" y="0px"
	 viewBox="0 0 28 28" enable-background="new 0 0 28 28" xml:space="preserve">
<g>
	<g opacity="0.8">
		<defs>
			<path id="SVGID_27_" opacity="0.8" d="M-577.5,101.325l3.472-4.363l1.068,1.112l2.422-3.293l4.362,6.544H-577.5z M-573.593,92.6
				c0.723,0,1.309,0.586,1.309,1.309c0,0.723-0.586,1.309-1.309,1.309c-0.723,0-1.309-0.586-1.309-1.309
				C-574.901,93.186-574.316,92.6-573.593,92.6z M-563.478,87.258h-16.665c-0.368,0-0.668,0.299-0.668,0.668v18.695
				c0,0.369,0.299,0.668,0.668,0.668h16.665c0.369,0,0.668-0.299,0.668-0.668V87.926C-562.81,87.557-563.109,87.258-563.478,87.258z
				"/>
		</defs>
		<clipPath id="SVGID_2_">
			<use xlink:href="#SVGID_27_"  overflow="visible"/>
		</clipPath>
		<g clip-path="url(#SVGID_2_)">
			<defs>
				<rect id="SVGID_29_" x="-940.785" y="-358.918" width="1554.026" height="971.266"/>
			</defs>
			<clipPath id="SVGID_4_">
				<use xlink:href="#SVGID_29_"  overflow="visible"/>
			</clipPath>
		</g>
	</g>
</g>
<g>
	<g opacity="0.8">
		<defs>
			<path id="SVGID_55_" opacity="0.8" d="M-577.5,220.825l3.472-4.363l1.068,1.112l2.422-3.293l4.362,6.544H-577.5z M-573.593,212.1
				c0.723,0,1.309,0.586,1.309,1.309s-0.586,1.309-1.309,1.309c-0.723,0-1.309-0.586-1.309-1.309S-574.316,212.1-573.593,212.1z
				 M-563.478,206.758h-16.665c-0.368,0-0.668,0.299-0.668,0.668v18.695c0,0.368,0.299,0.668,0.668,0.668h16.665
				c0.369,0,0.668-0.299,0.668-0.668v-18.695C-562.81,207.057-563.109,206.758-563.478,206.758z"/>
		</defs>
		<clipPath id="SVGID_6_">
			<use xlink:href="#SVGID_55_"  overflow="visible"/>
		</clipPath>
		<g clip-path="url(#SVGID_6_)">
			<defs>
				<rect id="SVGID_57_" x="-940.785" y="-239.418" width="1554.026" height="971.266"/>
			</defs>
			<clipPath id="SVGID_8_">
				<use xlink:href="#SVGID_57_"  overflow="visible"/>
			</clipPath>
		</g>
	</g>
</g>
<g>
	<g opacity="0.8">
		<defs>
			<path id="SVGID_59_" opacity="0.8" d="M-577.507-266.57h11.359v1.311h-11.359V-266.57z M-577.52-263.231h11.358v1.311h-11.358
				V-263.231z M-577.52-259.892h11.358v1.311h-11.358V-259.892z M-577.507-256.554h5.68v1.311h-5.68V-256.554z M-563.478-271.242
				h-16.665c-0.368,0-0.668,0.299-0.668,0.668v18.694c0,0.369,0.299,0.668,0.668,0.668h16.665c0.369,0,0.668-0.299,0.668-0.668
				v-18.694C-562.81-270.943-563.109-271.242-563.478-271.242z"/>
		</defs>
		<clipPath id="SVGID_10_">
			<use xlink:href="#SVGID_59_"  overflow="visible"/>
		</clipPath>
		<g clip-path="url(#SVGID_10_)">
			<defs>
				<rect id="SVGID_61_" x="-940.785" y="-945.058" width="1554.026" height="971.266"/>
			</defs>
			<clipPath id="SVGID_12_">
				<use xlink:href="#SVGID_61_"  overflow="visible"/>
			</clipPath>
		</g>
	</g>
</g>
<g>
	<g opacity="0.8">
		<defs>
			<path id="SVGID_87_" opacity="0.8" d="M-577.507-27.57h11.359v1.311h-11.359V-27.57z M-577.52-24.231h11.358v1.311h-11.358
				V-24.231z M-577.52-20.892h11.358v1.311h-11.358V-20.892z M-577.507-17.554h5.68v1.311h-5.68V-17.554z M-563.478-32.242h-16.665
				c-0.368,0-0.668,0.299-0.668,0.668v18.694c0,0.369,0.299,0.668,0.668,0.668h16.665c0.369,0,0.668-0.299,0.668-0.668v-18.694
				C-562.81-31.943-563.109-32.242-563.478-32.242z"/>
		</defs>
		<clipPath id="SVGID_14_">
			<use xlink:href="#SVGID_87_"  overflow="visible"/>
		</clipPath>
		<g clip-path="url(#SVGID_14_)">
			<defs>
				<rect id="SVGID_89_" x="-940.785" y="-706.058" width="1554.026" height="971.266"/>
			</defs>
			<clipPath id="SVGID_16_">
				<use xlink:href="#SVGID_89_"  overflow="visible"/>
			</clipPath>
		</g>
	</g>
</g>
<g>
	<g opacity="0.8">
		<defs>
			<path id="SVGID_91_" opacity="0.8" d="M-577.507-147.07h11.359v1.311h-11.359V-147.07z M-577.52-143.731h11.358v1.311h-11.358
				V-143.731z M-577.52-140.392h11.358v1.311h-11.358V-140.392z M-577.507-137.054h5.68v1.311h-5.68V-137.054z M-563.478-151.742
				h-16.665c-0.368,0-0.668,0.299-0.668,0.668v18.694c0,0.369,0.299,0.668,0.668,0.668h16.665c0.369,0,0.668-0.299,0.668-0.668
				v-18.694C-562.81-151.443-563.109-151.742-563.478-151.742z"/>
		</defs>
		<clipPath id="SVGID_18_">
			<use xlink:href="#SVGID_91_"  overflow="visible"/>
		</clipPath>
		<g clip-path="url(#SVGID_18_)">
			<defs>
				<rect id="SVGID_93_" x="-940.785" y="-825.558" width="1554.026" height="971.266"/>
			</defs>
			<clipPath id="SVGID_20_">
				<use xlink:href="#SVGID_93_"  overflow="visible"/>
			</clipPath>
		</g>
	</g>
</g>
<g>
	<g>
		<defs>
			<circle id="SVGID_163_" cx="43.727" cy="41.58" r="2.344"/>
		</defs>
		<clipPath id="SVGID_22_">
			<use xlink:href="#SVGID_163_"  overflow="visible"/>
		</clipPath>
		<g clip-path="url(#SVGID_22_)">
			<defs>
				<rect id="SVGID_165_" x="-725.523" y="-481.826" width="1280" height="800"/>
			</defs>
			<clipPath id="SVGID_24_">
				<use xlink:href="#SVGID_165_"  overflow="visible"/>
			</clipPath>
		</g>
	</g>
	<g>
		<defs>
			<path id="SVGID_167_" d="M43.727,44.705c-3.418,0-5.273-3.125-5.273-3.125s1.855-3.125,5.273-3.125S49,41.58,49,41.58
				S47.145,44.705,43.727,44.705z M43.727,37.674c-3.906,0-6.25,3.882-6.25,3.882s2.344,3.931,6.25,3.931s6.25-3.906,6.25-3.906
				S47.633,37.674,43.727,37.674z"/>
		</defs>
		<clipPath id="SVGID_26_">
			<use xlink:href="#SVGID_167_"  overflow="visible"/>
		</clipPath>
		<g clip-path="url(#SVGID_26_)">
			<defs>
				<rect id="SVGID_169_" x="-725.523" y="-481.826" width="1280" height="800"/>
			</defs>
			<clipPath id="SVGID_28_">
				<use xlink:href="#SVGID_169_"  overflow="visible"/>
			</clipPath>
		</g>
	</g>
</g>
<g>
	<defs>
		<path id="SVGID_171_" d="M20.386-26.173H6.66c-0.303,0-0.55,0.247-0.55,0.55v15.398c0,0.303,0.246,0.55,0.55,0.55h13.726
			c0.304,0,0.55-0.247,0.55-0.55v-15.398C20.936-25.926,20.69-26.173,20.386-26.173z"/>
	</defs>
	<clipPath id="SVGID_30_">
		<use xlink:href="#SVGID_171_"  overflow="visible"/>
	</clipPath>
	<g clip-path="url(#SVGID_30_)">
		<defs>
			<rect id="SVGID_173_" x="-290.39" y="-656.173" width="1280" height="800"/>
		</defs>
		<clipPath id="SVGID_32_">
			<use xlink:href="#SVGID_173_"  overflow="visible"/>
		</clipPath>
	</g>
</g>
<g>
	<defs>
		<path id="SVGID_175_" d="M41.378,9.348h9.356v1.079h-9.356V9.348z M41.367,12.098h9.355v1.079h-9.355V12.098z M41.367,14.848
			h9.355v1.079h-9.355V14.848z M41.378,17.598h4.678v1.079h-4.678V17.598z M52.934,5.5H39.208c-0.303,0-0.55,0.246-0.55,0.55v15.398
			c0,0.304,0.246,0.55,0.55,0.55h13.726c0.304,0,0.55-0.246,0.55-0.55V6.05C53.484,5.746,53.238,5.5,52.934,5.5z"/>
	</defs>
	<clipPath id="SVGID_34_">
		<use xlink:href="#SVGID_175_"  overflow="visible"/>
	</clipPath>
	<g clip-path="url(#SVGID_34_)">
		<defs>
			<rect id="SVGID_177_" x="-257.842" y="-662" width="1280" height="800"/>
		</defs>
		<clipPath id="SVGID_36_">
			<use xlink:href="#SVGID_177_"  overflow="visible"/>
		</clipPath>
	</g>
</g>
<g>
	<polygon fill="#FFFFFF" points="20.564,22.258 8.716,22.258 11.897,16.729 23.564,16.729 	"/>
	<polygon fill="#FFFFFF" points="17.448,5.742 23.372,16.003 16.989,16.003 11.161,5.908 	"/>
	<polygon fill="#FFFFFF" points="4.436,16.621 10.36,6.36 13.548,11.895 7.723,21.983 	"/>
</g>
</svg>
