<?xml version="1.0" encoding="utf-8"?>
<!-- Generator: Adobe Illustrator 17.0.0, SVG Export Plug-In . SVG Version: 6.00 Build 0)  -->
<!DOCTYPE svg PUBLIC "-//W3C//DTD SVG 1.1//EN" "http://www.w3.org/Graphics/SVG/1.1/DTD/svg11.dtd">
<svg version="1.1" id="Layer_1" xmlns="http://www.w3.org/2000/svg" xmlns:xlink="http://www.w3.org/1999/xlink" x="0px" y="0px"
	 width="89.833px" height="84.32px" viewBox="0 0 89.833 84.32" enable-background="new 0 0 89.833 84.32" xml:space="preserve">
<path d="M67.736,59.13c-5.87,5.78-13.92,9.36-22.82,9.36c-8.88,0-16.93-3.56-22.79-9.34c0.6-1.92,1.44-3.85,2.47-5.61
	c2.18-3.68,5.19-6.58,8.57-6.9c0,0,1.58-0.16,4.13-0.31c-3.45-2.96-5.71-7.84-5.71-13.37c0-4.31,1.35-8.37,3.81-11.44
	c2.52-3.15,5.9-4.89,9.52-4.89c7.35,0,13.33,7.32,13.33,16.33c0,5.51-2.25,10.38-5.68,13.34c1.25,0.08,2.5,0.19,3.74,0.33
	c0.49,0.03,0.98,0.09,1.45,0.17c0.06,0.01,0.13,0.02,0.19,0.03C62.386,47.69,66.046,53.52,67.736,59.13z"/>
</svg>
